<svg width="64" height="64" viewBox="0 0 64 64" fill="none" xmlns="http://www.w3.org/2000/svg">
<path d="M56 49.3333C56 53.016 53.016 56 49.3333 56H14.6667C10.9853 56 8 53.016 8 49.3333V14.6667C8 10.984 10.9853 8 14.6667 8H49.3333C53.016 8 56 10.984 56 14.6667V49.3333Z" fill="#673AB7"/>
<path d="M44.04 34.1333C43.1733 32.9333 41.92 32.1067 40.3067 31.6667C40.3067 31.6667 41.6667 31.1733 42.8933 29.3333C43.6267 28.16 44 26.7467 44 25.0933C44 22.2267 42.96 20.0267 40.88 18.52C38.8 17.0133 36.4533 16 32.4667 16H20V48H33.9067C37.68 47.9733 40.52 47.16 42.4533 45.6C44.3733 44.0133 45.3333 41.6667 45.3333 38.5333C45.3333 36.8 44.9067 35.3333 44.04 34.1333ZM28 21.3333C28 21.3333 33.56 21.3333 33.6667 21.3333C35.6933 21.3333 37.3333 22.9733 37.3333 25C37.3333 27.0267 35.6933 28.6667 33.6667 28.6667C33.56 28.6667 28 28.6667 28 28.6667V21.3333ZM34.6667 42.6667H28V34.6667H34.6667C36.88 34.6667 38.6667 36.4533 38.6667 38.6667C38.6667 40.88 36.88 42.6667 34.6667 42.6667Z" fill="white"/>
</svg>
