<svg width="64" height="64" viewBox="0 0 64 64" fill="none" xmlns="http://www.w3.org/2000/svg">
<path d="M54.6667 6.66675H9.33337L13.3334 52.0001L32 57.3334L50.6667 52.0001L54.6667 6.66675Z" fill="#0277BD"/>
<path d="M32 10.6667V53.2001L46.9333 48.9334L50.2667 10.6667H32Z" fill="#039BE5"/>
<path d="M44.1333 17.3333H32V22.6666H38.5333L38.1333 27.9999H32V33.3333H37.8667L37.4667 39.3333L32 41.1999V46.7999L42.5333 43.3333L43.4667 27.9999L44.1333 17.3333Z" fill="white"/>
<path d="M32.0001 17.3333V22.6666H20.1334L19.7334 17.3333H32.0001ZM25.8667 27.9999L26.1334 33.3333H32.0001V27.9999H25.8667ZM26.4001 35.9999H21.0667L21.4667 43.3333L32.0001 46.7999V41.1999L26.5334 39.3333L26.4001 35.9999Z" fill="#EEEEEE"/>
</svg>
