<svg width="64" height="64" viewBox="0 0 64 64" fill="none" xmlns="http://www.w3.org/2000/svg">
<g clip-path="url(#clip0_155_15)">
<path d="M42.6667 42.6667C48.5577 42.6667 53.3333 37.891 53.3333 32C53.3333 26.109 48.5577 21.3333 42.6667 21.3333C36.7756 21.3333 32 26.109 32 32C32 37.891 36.7756 42.6667 42.6667 42.6667Z" fill="#19BCFE"/>
<path fill-rule="evenodd" clip-rule="evenodd" d="M21.3332 64C24.1621 64 26.8753 62.8762 28.8756 60.8758C30.876 58.8754 31.9998 56.1623 31.9998 53.3333V42.6667H21.3332C18.5042 42.6667 15.7911 43.7905 13.7907 45.7909C11.7903 47.7912 10.6665 50.5043 10.6665 53.3333C10.6665 56.1623 11.7903 58.8754 13.7907 60.8758C15.7911 62.8762 18.5042 64 21.3332 64Z" fill="#09CF83"/>
<path fill-rule="evenodd" clip-rule="evenodd" d="M21.3332 42.6667H31.9998V21.3333H21.3332C18.5042 21.3333 15.7911 22.4571 13.7907 24.4575C11.7903 26.4579 10.6665 29.171 10.6665 32C10.6665 34.829 11.7903 37.5421 13.7907 39.5425C15.7911 41.5429 18.5042 42.6667 21.3332 42.6667Z" fill="#A259FF"/>
<path fill-rule="evenodd" clip-rule="evenodd" d="M21.3332 21.3333H31.9998V0H21.3332C18.5042 0 15.7911 1.12381 13.7907 3.12419C11.7903 5.12458 10.6665 7.83769 10.6665 10.6667C10.6665 13.4956 11.7903 16.2088 13.7907 18.2091C15.7911 20.2095 18.5042 21.3333 21.3332 21.3333Z" fill="#F24E1E"/>
<path fill-rule="evenodd" clip-rule="evenodd" d="M42.6667 21.3333H32V0H42.6667C45.4956 0 48.2088 1.12381 50.2091 3.12419C52.2095 5.12458 53.3333 7.83769 53.3333 10.6667C53.3333 13.4956 52.2095 16.2088 50.2091 18.2091C48.2088 20.2095 45.4956 21.3333 42.6667 21.3333Z" fill="#FF7262"/>
</g>
<defs>
<clipPath id="clip0_155_15">
<rect width="64" height="64" fill="white"/>
</clipPath>
</defs>
</svg>
