<svg width="64" height="64" viewBox="0 0 64 64" fill="none" xmlns="http://www.w3.org/2000/svg">
<path d="M8.66113 51.6008L9.04823 51.0589L27.3555 16.3213L27.3942 15.9535L19.3242 0.794625C18.6477 -0.475165 16.7441 -0.15407 16.5224 1.26742L8.66113 51.6008Z" fill="#FFC24A"/>
<path d="M8.88965 51.1876L9.1823 50.6167L27.2979 16.2431L19.2478 1.02254C18.5788 -0.233937 16.8798 0.0864279 16.6603 1.49297L8.88965 51.1876Z" fill="#FFA712"/>
<g filter="url(#filter0_i_155_4)">
<path d="M8.88965 51.1876L9.1823 50.6167L27.2979 16.2431L19.2478 1.02254C18.5788 -0.233937 16.8798 0.0864279 16.6603 1.49297L8.88965 51.1876Z" fill="#FDA612"/>
</g>
<path d="M33.2774 27.4197L39.2863 21.2659L33.2755 9.79145C32.705 8.70527 31.1119 8.70199 30.5474 9.79145L27.3359 15.9156V16.4371L33.2772 27.4197H33.2774Z" fill="#F4BD62"/>
<path d="M33.1701 27.1634L39.012 21.1805L33.1701 10.0568C32.6154 9.00085 31.2678 8.89017 30.7189 9.94918L27.4907 16.1685L27.394 16.4865L33.1701 27.1634Z" fill="#FFA50E"/>
<g filter="url(#filter1_i_155_4)">
<path d="M33.1701 27.1634L39.012 21.1805L33.1701 10.0568C32.6154 9.00085 31.2678 8.89017 30.7189 9.94918L27.4907 16.1685L27.394 16.4865L33.1701 27.1634Z" fill="#FFA50E"/>
</g>
<path d="M8.66113 51.6008L8.83654 51.4243L9.47399 51.1654L32.9 27.8263L33.1968 27.0184L27.353 15.8824L8.66113 51.6008Z" fill="#F6820C"/>
<path d="M34.0279 63.3711L55.2291 51.5472L49.1748 14.2603C48.9853 13.0937 47.5542 12.6326 46.7191 13.469L8.66113 51.6008L29.7407 63.3702C30.3959 63.736 31.1338 63.9282 31.8842 63.9283C32.6346 63.9285 33.3726 63.7367 34.0279 63.3711Z" fill="#FDE068"/>
<path d="M55.0387 51.448L49.0304 14.4443C48.8426 13.2865 47.6523 12.8075 46.8236 13.6376L8.896 51.5282L29.7441 63.1809C30.3943 63.544 31.1266 63.7347 31.8713 63.7349C32.616 63.7351 33.3484 63.5447 33.9988 63.182L55.0389 51.4478L55.0387 51.448Z" fill="#FCCA3F"/>
<path d="M34.0276 63.0227C33.3722 63.3882 32.6343 63.58 31.8839 63.5798C31.1335 63.5797 30.3957 63.3876 29.7405 63.0218L8.83071 51.4215L8.66113 51.6008L29.7405 63.3702C30.3957 63.736 31.1336 63.9282 31.884 63.9283C32.6344 63.9285 33.3724 63.7367 34.0277 63.3711L55.2289 51.5472L55.1769 51.2277L34.0277 63.0229L34.0276 63.0227Z" fill="#EEAB37"/>
<defs>
<filter id="filter0_i_155_4" x="8.88965" y="0.237305" width="18.4082" height="50.9503" filterUnits="userSpaceOnUse" color-interpolation-filters="sRGB">
<feFlood flood-opacity="0" result="BackgroundImageFix"/>
<feBlend mode="normal" in="SourceGraphic" in2="BackgroundImageFix" result="shape"/>
<feColorMatrix in="SourceAlpha" type="matrix" values="0 0 0 0 0 0 0 0 0 0 0 0 0 0 0 0 0 0 127 0" result="hardAlpha"/>
<feOffset/>
<feGaussianBlur stdDeviation="3.19088"/>
<feComposite in2="hardAlpha" operator="arithmetic" k2="-1" k3="1"/>
<feColorMatrix type="matrix" values="0 0 0 0 0 0 0 0 0 0 0 0 0 0 0 0 0 0 0.06 0"/>
<feBlend mode="normal" in2="shape" result="effect1_innerShadow_155_4"/>
</filter>
<filter id="filter1_i_155_4" x="27.394" y="7.93141" width="11.8" height="19.232" filterUnits="userSpaceOnUse" color-interpolation-filters="sRGB">
<feFlood flood-opacity="0" result="BackgroundImageFix"/>
<feBlend mode="normal" in="SourceGraphic" in2="BackgroundImageFix" result="shape"/>
<feColorMatrix in="SourceAlpha" type="matrix" values="0 0 0 0 0 0 0 0 0 0 0 0 0 0 0 0 0 0 127 0" result="hardAlpha"/>
<feOffset dx="0.182336" dy="-1.64103"/>
<feGaussianBlur stdDeviation="0.638177"/>
<feComposite in2="hardAlpha" operator="arithmetic" k2="-1" k3="1"/>
<feColorMatrix type="matrix" values="0 0 0 0 0 0 0 0 0 0 0 0 0 0 0 0 0 0 0.09 0"/>
<feBlend mode="normal" in2="shape" result="effect1_innerShadow_155_4"/>
</filter>
</defs>
</svg>
