<svg width="64" height="64" viewBox="0 0 64 64" fill="none" xmlns="http://www.w3.org/2000/svg">
<path d="M54.6667 6.66675H9.33337L13.3334 52.0001L32 57.3334L50.6667 52.0001L54.6667 6.66675Z" fill="#E65100"/>
<path d="M32 10.6667V53.2001L46.9333 48.9334L50.2667 10.6667H32Z" fill="#FF6D00"/>
<path d="M32 33.3333V27.9999H43.4667L42.5333 43.3333L32 46.7999V41.1999L37.4667 39.3333L37.8667 33.3333H32V33.3333ZM43.8667 22.6666L44.2667 17.3333H32V22.6666H43.8667Z" fill="white"/>
<path d="M32 41.1999V46.7999L21.4667 43.3333L20.9334 35.9999H26.2667L26.5334 39.3333L32 41.1999ZM25.4667 22.6666H32V17.3333H19.8667L20.8 33.3333H32V27.9999H25.8667L25.4667 22.6666Z" fill="#EEEEEE"/>
</svg>
