<svg width="64" height="64" viewBox="0 0 64 64" fill="none" xmlns="http://www.w3.org/2000/svg">
<path d="M8 56V8H56V56H8Z" fill="#FFD600"/>
<path d="M39.384 43.9293C40.3066 45.4279 41.3093 46.8639 43.4333 46.8639C45.2173 46.8639 46.1533 45.9773 46.1533 44.7506C46.1533 43.2826 45.1853 42.7613 43.2226 41.9066L42.1466 41.4479C39.0413 40.1306 36.976 38.4799 36.976 34.9933C36.976 31.7799 39.436 29.3346 43.28 29.3346C46.0173 29.3346 47.984 30.2826 49.4026 32.7653L46.0506 34.9079C45.3133 33.5906 44.516 33.0719 43.28 33.0719C42.0186 33.0719 41.22 33.8679 41.22 34.9079C41.22 36.1933 42.02 36.7133 43.8666 37.5093L44.9426 37.9679C48.6026 39.5266 50.6666 41.1186 50.6666 44.6973C50.6666 48.5533 47.6213 50.6666 43.5333 50.6666C39.5346 50.6666 37.264 48.6599 36 46.1759L39.384 43.9293ZM23.936 44.0386C24.6106 45.2466 25.636 46.1759 27.1106 46.1759C28.5213 46.1759 29.3333 45.6186 29.3333 43.4519V29.3333H33.7773V44.1346C33.7773 48.6239 31.1733 50.6666 27.3706 50.6666C23.9346 50.6666 21.4546 48.3386 20.444 46.1759L23.936 44.0386Z" fill="#000001"/>
</svg>
