<svg width="64" height="64" viewBox="0 0 64 64" fill="none" xmlns="http://www.w3.org/2000/svg">
<path d="M6.33398 7.034H57.666V56.966H6.33398V7.034Z" fill="#0C0824"/>
<path d="M2.66743 3.65033H61.3326V60.3497H2.66743V3.65033ZM0 63H64V1H0V63ZM43.1474 26.4359C41.04 26.4359 40.32 27.4965 40.32 28.3708C40.32 29.3247 40.8 29.9878 43.6274 31.4436C47.8149 33.458 49.1131 35.3907 49.1131 38.2273C49.1131 42.4673 45.8606 44.7452 41.4606 44.7452C39.5722 44.8147 37.6954 44.4249 35.9931 43.6097C35.8057 43.5302 35.7806 43.3985 35.7806 43.185V39.2856C35.7806 39.0199 35.9131 38.9404 36.1006 39.0744C37.6992 40.0957 39.56 40.6382 41.4606 40.6368C43.568 40.6368 44.448 39.7625 44.448 38.5702C44.448 37.6163 43.8354 36.7692 41.1406 35.3907C37.3531 33.5897 35.7806 31.757 35.7806 28.7138C35.7806 25.2958 38.4731 22.4615 43.1406 22.4615C44.7653 22.3922 46.3876 22.6447 47.9131 23.2042C48.001 23.2608 48.0721 23.3397 48.1191 23.4327C48.1661 23.5257 48.1873 23.6295 48.1806 23.7333V27.367C48.1806 27.5782 48.048 27.7122 47.7806 27.6327C46.3706 26.8263 44.7672 26.4143 43.1406 26.4404L43.1474 26.4359ZM20.2126 29.5881C20.8251 29.6404 21.3051 29.6404 22.3726 29.6404C25.4926 29.6404 28.4251 28.5548 28.4251 24.342C28.4251 20.9763 26.3177 19.2821 22.7726 19.2821C21.7051 19.2821 20.6926 19.3343 20.2126 19.3615V29.5881ZM15.4651 15.5075C15.4651 15.3213 15.8377 15.1896 16.0526 15.1896C18.3447 15.0965 20.6386 15.0526 22.9326 15.0579C30.32 15.0579 33.2 19.0845 33.2 24.2262C33.2 30.9553 28.2926 33.8441 22.2674 33.8441C21.2549 33.8441 20.9074 33.7919 20.1874 33.7919V43.9662C20.1874 44.1774 20.1074 44.2842 19.8674 44.2842H15.7874C15.5749 44.2842 15.4674 44.2047 15.4674 43.9662V15.5189L15.4651 15.5075Z" fill="#31C5F0"/>
</svg>
