<svg width="64" height="64" viewBox="0 0 64 64" fill="none" xmlns="http://www.w3.org/2000/svg">
<g clip-path="url(#clip0_78:26)">
<path d="M31.9999 49.1998C14.5759 49.1998 0.399902 41.4838 0.399902 31.9998C0.399902 22.5158 14.5759 14.7998 31.9999 14.7998C49.4239 14.7998 63.5999 22.5158 63.5999 31.9998C63.5999 41.4838 49.4239 49.1998 31.9999 49.1998Z" fill="#DCD5F2"/>
<path d="M32 15.2004C49.204 15.2004 63.2 22.7372 63.2 32.0004C63.2 41.2636 49.204 48.8004 32 48.8004C14.796 48.8004 0.8 41.2636 0.8 32.0004C0.8 22.7372 14.796 15.2004 32 15.2004ZM32 14.4004C14.3272 14.4004 0 22.2804 0 32.0004C0 41.7204 14.3272 49.6004 32 49.6004C49.6728 49.6004 64 41.7204 64 32.0004C64 22.2804 49.6728 14.4004 32 14.4004Z" fill="#8B75A1"/>
<path d="M20.0898 27.1996C21.4698 27.1996 22.661 27.6972 23.357 28.5644C23.9562 29.3116 24.1418 30.3012 23.8914 31.426C23.2186 34.4588 21.9162 35.1996 17.2562 35.1996H13.9442L15.3442 27.1996H20.0898ZM20.0898 25.5996H14.0002L11.2002 41.5996H12.8002L13.645 36.7996H17.257C21.9474 36.7996 24.4994 36.0756 25.4538 31.7724C26.2738 28.0764 23.549 25.5996 20.0898 25.5996ZM48.8898 27.1996C50.2698 27.1996 51.461 27.6972 52.157 28.5644C52.7562 29.3116 52.9418 30.3012 52.6914 31.426C52.0186 34.4588 50.7162 35.1996 46.0562 35.1996H42.7442L44.1442 27.1996H48.8898ZM48.8898 25.5996H42.8002L40.0002 41.5996H41.6002L42.445 36.7996H46.057C50.7474 36.7996 53.2994 36.0756 54.2538 31.7724C55.0738 28.0764 52.349 25.5996 48.8898 25.5996Z" fill="#36404D"/>
<path d="M39.2578 26.5694C38.5546 25.8782 37.3154 25.5998 35.4674 25.5998H31.037L32.0002 20.7998H30.3202L27.2002 36.7998H28.7922L30.7026 27.1998H31.0378H35.4682C37.3386 27.1998 37.9434 27.5198 38.1362 27.7094C38.4106 27.9798 38.4754 28.6902 38.3098 29.5998L36.8962 36.7998H38.581L39.8818 29.8958C40.1594 28.3694 39.949 27.2494 39.2578 26.5694Z" fill="#36404D"/>
</g>
<defs>
<clipPath id="clip0_78:26">
<rect width="64" height="64" fill="white"/>
</clipPath>
</defs>
</svg>
