<svg width="64" height="64" viewBox="0 0 64 64" fill="none" xmlns="http://www.w3.org/2000/svg">
<path d="M43.5281 7.19992C43.0881 7.17592 42.7113 7.51929 42.6953 7.95929C42.6713 8.39929 43.0163 8.77592 43.4563 8.79992H43.4953C43.9193 8.79992 44.2715 8.46317 44.2875 8.03117C44.3115 7.59117 43.9681 7.21592 43.5281 7.19992ZM21.5047 7.2796C21.0647 7.2316 20.6636 7.54429 20.6156 7.98429C20.5596 8.42429 20.8803 8.81579 21.3203 8.87179H21.4078C21.8078 8.87179 22.152 8.57667 22.2 8.16867C22.256 7.72867 21.9367 7.3276 21.5047 7.2796ZM40.3953 7.79367C40.2908 7.79017 40.1837 7.80835 40.0797 7.84835C39.6717 8.00835 39.4634 8.47142 39.6234 8.88742C39.7514 9.19942 40.0566 9.39992 40.3766 9.39992C40.4726 9.39992 40.5681 9.38367 40.6641 9.34367C41.0721 9.18367 41.2803 8.72042 41.1203 8.31242C41.0003 8.00042 40.7088 7.80417 40.3953 7.79367ZM18.2031 7.88585C18.1001 7.9026 17.9987 7.93992 17.9047 7.99992C17.5287 8.23192 17.4163 8.7286 17.6563 9.1046C17.8003 9.3446 18.0641 9.4796 18.3281 9.4796C18.4721 9.4796 18.6236 9.43948 18.7516 9.35148C19.1276 9.11948 19.2398 8.62435 19.0078 8.24835C18.8338 7.97235 18.5121 7.8356 18.2031 7.88585ZM24.4844 8.21867C24.1739 8.20554 23.8721 8.37779 23.7281 8.67179C23.5361 9.07179 23.7125 9.55167 24.1125 9.74367C24.2165 9.79167 24.3364 9.81554 24.4484 9.81554C24.7524 9.81554 25.0406 9.64729 25.1766 9.35929C25.3606 8.95929 25.1922 8.48723 24.7922 8.29523C24.6922 8.24723 24.5879 8.22304 24.4844 8.21867ZM46.3641 8.43429C46.1601 8.43229 45.956 8.50798 45.8 8.66398C45.48 8.97598 45.4802 9.4801 45.7922 9.7921C45.9442 9.9521 46.1514 10.0312 46.3594 10.0312C46.5594 10.0312 46.7683 9.95992 46.9203 9.79992C47.2323 9.49592 47.2401 8.98379 46.9281 8.67179C46.7721 8.51579 46.5681 8.43629 46.3641 8.43429ZM37.4031 9.28429C37.3 9.30179 37.1987 9.33992 37.1047 9.39992C36.7367 9.63992 36.6241 10.1364 36.8641 10.5124C37.0161 10.7444 37.2798 10.8718 37.5438 10.8718C37.6878 10.8718 37.8406 10.8317 37.9766 10.7437C38.3446 10.5117 38.4476 10.0165 38.2156 9.64054C38.0356 9.36454 37.7125 9.23179 37.4031 9.28429ZM27.2125 9.84523C27.0398 9.84009 26.87 9.89102 26.7286 9.99041C26.5872 10.0898 26.4818 10.2323 26.4281 10.3966C26.3745 10.5609 26.3755 10.7381 26.431 10.9018C26.4865 11.0655 26.5935 11.2068 26.7359 11.3046C26.7359 11.3046 26.7375 11.3046 26.7375 11.3046L26.7391 11.3062C28.0542 12.2315 29.4337 13.4289 30.8297 14.814C29.2203 16.5288 27.619 18.4946 26.0656 20.664C22.9975 20.9347 20.1404 21.4202 17.5578 22.0702C17.0691 20.1489 16.74 18.3437 16.6234 16.7421C16.6116 16.54 16.5236 16.35 16.3772 16.2102C16.2307 16.0705 16.0368 15.9914 15.8344 15.989C15.7226 15.9875 15.6118 16.0094 15.509 16.0534C15.4063 16.0973 15.3139 16.1623 15.2378 16.2442C15.1617 16.326 15.1036 16.4229 15.0672 16.5286C15.0308 16.6343 15.017 16.7464 15.0266 16.8577C15.1517 18.5778 15.4961 20.4784 16.0047 22.4827C14.4265 22.9439 12.9692 23.4694 11.6703 24.0577C11.5991 24.0886 11.5328 24.1296 11.4734 24.1796C11.4249 24.1922 11.3751 24.193 11.3281 24.2155C10.9281 24.3995 10.7598 24.8796 10.9438 25.2796C11.0798 25.5676 11.3679 25.7359 11.6719 25.7359C11.7839 25.7359 11.9038 25.712 12.0078 25.664C12.0519 25.6428 12.0819 25.6071 12.1203 25.5796C12.1927 25.5679 12.2632 25.5464 12.3297 25.5155C13.5391 24.9678 14.9131 24.4729 16.4141 24.0343C17.1549 26.563 18.1716 29.2491 19.4516 32.0046C18.3247 34.432 17.3906 36.8094 16.6797 39.0687C15.0778 38.6123 13.6093 38.0927 12.3313 37.514H12.3297C12.3292 37.5135 12.3287 37.5129 12.3281 37.5124C12.3266 37.5117 12.325 37.5116 12.3234 37.5109C12.2286 37.4675 12.1261 37.443 12.0219 37.439C11.8633 37.4333 11.7066 37.4748 11.5717 37.5584C11.4368 37.642 11.3298 37.7638 11.2643 37.9084C11.1988 38.0529 11.1778 38.2137 11.2039 38.3702C11.23 38.5267 11.3021 38.672 11.4109 38.7874C11.4109 38.7874 11.4109 38.789 11.4109 38.789C11.4808 38.8629 11.564 38.9228 11.6563 38.9655C11.6622 38.9684 11.6658 38.9737 11.6719 38.9765C11.6855 38.9827 11.7002 38.9838 11.7141 38.989C13.0624 39.5969 14.5835 40.1365 16.2297 40.6077C16.0006 41.4327 15.7914 42.246 15.6234 43.0312C15.5987 43.1349 15.5948 43.2425 15.6122 43.3477C15.6296 43.4529 15.6678 43.5535 15.7247 43.6437C15.7815 43.7339 15.8558 43.8119 15.9432 43.873C16.0306 43.9341 16.1293 43.9771 16.2336 43.9994C16.3378 44.0218 16.4455 44.0232 16.5503 44.0034C16.655 43.9835 16.7548 43.943 16.8437 43.8841C16.9325 43.8252 17.0087 43.7491 17.0678 43.6603C17.1268 43.5715 17.1675 43.4718 17.1875 43.3671C17.3494 42.6101 17.5534 41.8216 17.7766 41.0202C20.0867 41.5894 22.6242 42.0149 25.3219 42.2859C27.1045 44.8803 28.9669 47.1938 30.8359 49.1843C30.0312 49.9838 29.2316 50.7328 28.4469 51.3843C28.3647 51.451 28.2966 51.5333 28.2465 51.6265C28.1964 51.7196 28.1652 51.8218 28.1548 51.9271C28.1445 52.0324 28.1551 52.1387 28.1861 52.2399C28.2171 52.3411 28.2678 52.4351 28.3354 52.5165C28.403 52.5979 28.486 52.6651 28.5798 52.7142C28.6735 52.7633 28.776 52.7933 28.8814 52.8026C28.9868 52.8118 29.093 52.8 29.1938 52.7679C29.2946 52.7358 29.3881 52.684 29.4688 52.6155C30.2881 51.9353 31.1177 51.1611 31.9484 50.3374C33.1263 51.5073 34.2996 52.5472 35.45 53.4249C35.4556 53.4295 35.4583 53.4361 35.4641 53.4405V53.4359C35.5473 53.5024 35.6431 53.5517 35.7456 53.5808C35.8482 53.6098 35.9555 53.6181 36.0613 53.6051C36.1672 53.5921 36.2693 53.5581 36.3618 53.5051C36.4543 53.452 36.5352 53.3811 36.5999 53.2963C36.6645 53.2115 36.7116 53.1147 36.7383 53.0115C36.765 52.9083 36.7709 52.8008 36.7554 52.6953C36.74 52.5898 36.7037 52.4885 36.6485 52.3972C36.5934 52.306 36.5206 52.2267 36.4344 52.164C35.3398 51.3299 34.2093 50.3262 33.0672 49.189C34.9367 47.2004 36.8014 44.8891 38.5859 42.2952C41.2957 42.0267 43.8384 41.5951 46.1594 41.0265C46.5407 42.3921 46.8378 43.7007 47.0406 44.9296C47.075 45.1391 47.1912 45.3263 47.3637 45.4501C47.4491 45.5114 47.5457 45.5553 47.648 45.5793C47.7504 45.6032 47.8564 45.6068 47.9602 45.5898C48.0639 45.5727 48.1632 45.5354 48.2526 45.48C48.3419 45.4246 48.4194 45.3521 48.4807 45.2667C48.542 45.1813 48.5859 45.0847 48.6098 44.9824C48.6338 44.88 48.6373 44.774 48.6203 44.6702C48.4084 43.3862 48.1032 42.0306 47.7125 40.6249C49.0705 40.2386 50.3466 39.808 51.5063 39.328C51.6048 39.2888 51.6945 39.2304 51.7702 39.1563C51.846 39.0821 51.9062 38.9936 51.9474 38.8959C51.9887 38.7983 52.0101 38.6934 52.0104 38.5874C52.0108 38.4814 51.9901 38.3763 51.9495 38.2784C51.9089 38.1805 51.8493 38.0916 51.774 38.0169C51.6988 37.9422 51.6095 37.8832 51.5113 37.8433C51.413 37.8035 51.3078 37.7835 51.2018 37.7846C51.0958 37.7858 50.9911 37.808 50.8938 37.8499C49.7903 38.3066 48.5627 38.7199 47.2469 39.0921C46.5323 36.8193 45.6029 34.4347 44.4672 31.9921C45.7498 29.2331 46.763 26.5506 47.5063 24.0187C48.4206 24.2844 49.3045 24.5636 50.1156 24.8718C50.2136 24.9098 50.3181 24.928 50.4232 24.9256C50.5282 24.9232 50.6317 24.9001 50.7279 24.8577C50.824 24.8152 50.9108 24.7543 50.9834 24.6783C51.0559 24.6023 51.1128 24.5127 51.1508 24.4148C51.1887 24.3168 51.207 24.2123 51.2046 24.1072C51.2022 24.0022 51.1791 23.8987 51.1367 23.8025C51.0942 23.7064 51.0333 23.6196 50.9573 23.547C50.8813 23.4745 50.7917 23.4176 50.6938 23.3796C50.6915 23.3787 50.6897 23.3774 50.6875 23.3765C50.6865 23.3761 50.6854 23.3769 50.6844 23.3765C49.8246 23.0498 48.895 22.7554 47.9359 22.4765C48.2883 21.096 48.5633 19.765 48.7359 18.5124V18.5109V18.5093C48.7531 18.3968 48.746 18.282 48.7152 18.1725C48.6845 18.0629 48.6307 17.9612 48.5575 17.8741C48.4843 17.787 48.3934 17.7165 48.2908 17.6674C48.1882 17.6182 48.0763 17.5915 47.9625 17.589C47.7657 17.585 47.5743 17.6537 47.425 17.782C47.2757 17.9103 47.1789 18.0891 47.1531 18.2843C47.153 18.2855 47.1517 18.2862 47.1516 18.2874V18.289C47.1516 18.2895 47.1516 18.29 47.1516 18.2905C46.9894 19.4683 46.7288 20.7341 46.3922 22.053C43.8039 21.4051 40.9265 20.9322 37.8531 20.664C36.295 18.4906 34.6891 16.5137 33.075 14.7984C34.2316 13.6472 35.3754 12.6318 36.4828 11.7921C36.6179 11.6924 36.7182 11.5527 36.7695 11.3928C36.8208 11.233 36.8205 11.061 36.7686 10.9013C36.7168 10.7416 36.616 10.6023 36.4806 10.5031C36.3452 10.4038 36.182 10.3497 36.0141 10.3484C35.8342 10.3471 35.6591 10.4066 35.5172 10.5171C34.3447 11.4061 33.1468 12.4672 31.9453 13.6609C30.4992 12.2297 29.0595 10.9808 27.6609 9.99679C27.5302 9.9022 27.3739 9.84936 27.2125 9.84523V9.84523ZM16.3844 10.3655C16.0743 10.3772 15.7841 10.5676 15.6641 10.8796C15.5041 11.2876 15.7121 11.7524 16.1281 11.9124C16.2241 11.9524 16.3198 11.9687 16.4078 11.9687C16.7358 11.9687 17.0394 11.7684 17.1594 11.4484C17.3194 11.0404 17.1113 10.5755 16.6953 10.4155C16.5933 10.3775 16.4878 10.3617 16.3844 10.3655ZM47.9391 11.2468C47.8372 11.2312 47.7294 11.236 47.6234 11.264C47.1914 11.376 46.9366 11.8072 47.0406 12.2312C47.1366 12.5992 47.4636 12.8405 47.8156 12.8405C47.8796 12.8405 47.9516 12.8315 48.0156 12.8155C48.4396 12.7035 48.7042 12.2725 48.5922 11.8405C48.5082 11.5225 48.2447 11.2937 47.9391 11.2468ZM15.8484 13.4952C15.4084 13.4712 15.024 13.8004 15 14.2484C14.968 14.6884 15.3036 15.0634 15.7516 15.0874C15.7676 15.0954 15.784 15.0952 15.8 15.0952C16.216 15.0952 16.568 14.7677 16.6 14.3437C16.624 13.9037 16.2884 13.5192 15.8484 13.4952ZM48.1688 14.4077C47.7288 14.4077 47.3766 14.7675 47.3766 15.2155C47.3766 15.6555 47.7366 16.0077 48.1766 16.0077C48.6166 16.0077 48.9766 15.6477 48.9766 15.2077C48.9766 14.7677 48.6168 14.4077 48.1688 14.4077ZM31.9547 15.9562C33.2268 17.3134 34.5018 18.849 35.7563 20.5187C34.5255 20.451 33.2779 20.4046 32 20.4046C30.6886 20.4046 29.4099 20.454 28.1484 20.5249C29.4041 18.8488 30.6804 17.3193 31.9547 15.9562ZM32 22.0046C33.707 22.0046 35.3727 22.0725 36.9875 22.1952C38.0998 23.7819 39.1841 25.4774 40.2172 27.2671C41.1296 28.8478 41.9597 30.4271 42.7047 31.9843C41.954 33.5555 41.1227 35.1472 40.2016 36.7421C40.1978 36.7488 40.1942 36.7556 40.1906 36.7624C40.1864 36.7696 40.1822 36.7769 40.1781 36.7843C39.3723 38.1784 38.533 39.5065 37.6766 40.7796C35.8485 40.9391 33.9515 41.0265 32 41.0265C30.0216 41.0265 28.0952 40.9389 26.2438 40.7749C25.3847 39.4972 24.5405 38.171 23.7328 36.7718C22.8061 35.1661 21.9818 33.5659 21.2281 31.9843C21.9786 30.4146 22.806 28.8249 23.7266 27.2312C23.7281 27.2286 23.7297 27.226 23.7313 27.2234C23.7339 27.2192 23.7365 27.215 23.7391 27.2109C24.758 25.4467 25.8278 23.778 26.9234 22.2109C28.5682 22.083 30.2593 22.0046 32 22.0046ZM39.0453 22.3921C41.5242 22.6643 43.8492 23.0721 45.9594 23.5968C45.3494 25.6657 44.5466 27.8536 43.5547 30.1124C42.9468 28.9032 42.307 27.6881 41.6031 26.4687C40.7804 25.0435 39.9197 23.6958 39.0453 22.3921ZM24.8578 22.4093C24.0011 23.6893 23.1599 25.0142 22.3531 26.4109C22.3495 26.4171 22.3456 26.4235 22.3422 26.4296C22.3413 26.4311 22.3415 26.4328 22.3406 26.4343C21.6318 27.6617 20.982 28.8858 20.3703 30.103C19.3886 27.8598 18.5753 25.6748 17.9703 23.6202C20.0712 23.0941 22.3879 22.6853 24.8578 22.4093ZM53.3906 24.6359C53.0783 24.607 52.7638 24.7622 52.6078 25.0562C52.3998 25.4482 52.5518 25.9279 52.9438 26.1359C53.0638 26.1999 53.1923 26.2312 53.3203 26.2312C53.6003 26.2312 53.8794 26.0797 54.0234 25.8077C54.2314 25.4237 54.0793 24.936 53.6953 24.728C53.5973 24.676 53.4948 24.6455 53.3906 24.6359ZM9.03438 25.7374C8.83238 25.7024 8.61526 25.7438 8.43126 25.8718C8.07126 26.1278 7.98463 26.6243 8.24063 26.9843C8.40063 27.2083 8.64732 27.328 8.89532 27.328C9.05532 27.328 9.21557 27.2805 9.35157 27.1765L9.35938 27.1843C9.71938 26.9283 9.80757 26.424 9.55157 26.064C9.42357 25.884 9.23638 25.7724 9.03438 25.7374ZM55.9141 26.4015C55.7101 26.4175 55.5128 26.5116 55.3688 26.6796C55.0808 27.0156 55.1281 27.5197 55.4641 27.8077C55.6161 27.9357 55.8006 27.9999 55.9766 27.9999C56.2086 27.9999 56.4322 27.9044 56.5922 27.7124C56.8722 27.3764 56.8313 26.8721 56.4953 26.5921C56.3273 26.4481 56.1181 26.3855 55.9141 26.4015ZM32 27.203C29.3488 27.203 27.2 29.3518 27.2 32.003C27.2 34.6542 29.3488 36.803 32 36.803C34.6512 36.803 36.8 34.6542 36.8 32.003C36.8 29.3518 34.6512 27.203 32 27.203ZM6.45626 27.9265C6.25326 27.9585 6.06395 28.0684 5.93595 28.2484C5.67995 28.6084 5.76032 29.1127 6.12032 29.3687C6.25632 29.4647 6.42438 29.5202 6.58438 29.5202C6.83238 29.5202 7.07926 29.4003 7.23126 29.1843C7.49526 28.8243 7.40826 28.3278 7.05626 28.0718C6.87626 27.9398 6.65926 27.8945 6.45626 27.9265ZM57.9484 28.8671C57.8449 28.8714 57.7406 28.8957 57.6406 28.9437C57.2406 29.1277 57.0644 29.5999 57.2484 29.9999C57.3844 30.2959 57.6726 30.464 57.9766 30.464C58.0886 30.464 58.2005 30.4401 58.3125 30.3921C58.7125 30.2081 58.8887 29.728 58.7047 29.328C58.5607 29.028 58.2589 28.8544 57.9484 28.8671ZM5.56876 30.8952C5.13035 30.9191 4.78656 31.2854 4.80782 31.7312C4.82542 32.1616 5.17688 32.4952 5.60782 32.4952H5.64063C6.08063 32.4792 6.42401 32.104 6.40001 31.664C6.38401 31.216 6.00876 30.8792 5.56876 30.8952ZM58.1266 31.9812C57.8168 32.0108 57.5366 32.2239 57.4406 32.5359V32.5437C57.3126 32.9597 57.5448 33.4077 57.9688 33.5437C58.0408 33.5677 58.128 33.5765 58.2 33.5765C58.544 33.5765 58.8568 33.3595 58.9688 33.0155C59.0968 32.5995 58.8646 32.1515 58.4406 32.0155C58.3366 31.9815 58.2298 31.9713 58.1266 31.9812ZM6.8922 33.8062C6.6882 33.7842 6.4767 33.8405 6.3047 33.9765C5.9607 34.2565 5.90438 34.7606 6.18438 35.1046C6.33638 35.2966 6.56782 35.3999 6.80782 35.3999C6.98382 35.3999 7.1607 35.3434 7.3047 35.2234C7.6487 34.9514 7.70326 34.4486 7.43126 34.1046C7.29126 33.9286 7.0962 33.8282 6.8922 33.8062ZM20.3641 33.8593C20.9817 35.0905 21.6299 36.3279 22.3469 37.5702C22.3469 37.5707 22.3469 37.5713 22.3469 37.5718C22.9383 38.5965 23.549 39.5822 24.1688 40.5452C22.0571 40.2842 20.0627 39.9268 18.2297 39.4796C18.7999 37.6782 19.5144 35.7928 20.3641 33.8593ZM43.5578 33.8593C44.4105 35.7984 45.1202 37.686 45.6922 39.4921C43.8475 39.939 41.8556 40.304 39.7313 40.5624C40.3532 39.5977 40.9674 38.6127 41.5609 37.5859C41.5808 37.554 41.5943 37.5302 41.6094 37.4999C42.3121 36.2813 42.9508 35.0676 43.5578 33.8593ZM56.4656 34.6124C56.2616 34.6074 56.0553 34.6792 55.8953 34.8312C55.5753 35.1352 55.5681 35.6487 55.8641 35.9687C56.0241 36.1287 56.2324 36.2077 56.4484 36.2077C56.6484 36.2077 56.848 36.1361 57 35.9921C57.32 35.6881 57.3274 35.1762 57.0234 34.8562C56.8714 34.7002 56.6696 34.6174 56.4656 34.6124ZM9.03907 35.9249C8.83807 35.9639 8.65213 36.08 8.52813 36.264C8.28013 36.632 8.38357 37.1285 8.75157 37.3765C8.88757 37.4645 9.0402 37.5124 9.1922 37.5124C9.4562 37.5124 9.70426 37.3835 9.85626 37.1515C10.1043 36.7835 10.0086 36.2884 9.64063 36.0484C9.45663 35.9244 9.24007 35.8859 9.03907 35.9249ZM53.7672 36.4984C53.6633 36.5111 53.5601 36.5439 53.4641 36.5999C53.0881 36.8159 52.9526 37.3114 53.1766 37.6874C53.3206 37.9514 53.5921 38.0874 53.8641 38.0874C54.0001 38.0874 54.1441 38.0563 54.2641 37.9843C54.6481 37.7603 54.7834 37.2712 54.5594 36.8952C54.3974 36.6072 54.0788 36.4601 53.7672 36.4984ZM27.4125 42.4577C28.9076 42.5587 30.4318 42.6265 32 42.6265C33.5365 42.6265 35.0319 42.5627 36.4984 42.4655C35.0089 44.5361 33.4797 46.4039 31.9547 48.0327C30.4307 46.4025 28.9008 44.5284 27.4125 42.4577ZM15.9766 45.5593C15.5366 45.5113 15.1355 45.8318 15.0875 46.2718C15.0475 46.7118 15.36 47.1035 15.8 47.1515C15.832 47.1515 15.8555 47.1593 15.8875 47.1593C16.2875 47.1593 16.6397 46.8565 16.6797 46.4405C16.7277 46.0005 16.4166 45.6073 15.9766 45.5593ZM48.0953 46.7437C47.6553 46.7677 47.3198 47.1443 47.3438 47.5843C47.3678 48.0083 47.7198 48.3359 48.1438 48.3359H48.1922C48.6322 48.3119 48.9678 47.9354 48.9438 47.4874C48.9198 47.0474 48.5353 46.7117 48.0953 46.7437ZM15.7359 48.7515C15.2879 48.7755 14.9526 49.1521 14.9766 49.5921C14.9926 50.0161 15.3526 50.3515 15.7766 50.3515H15.8156C16.2556 50.3275 16.5928 49.9524 16.5688 49.5124C16.5528 49.0724 16.1759 48.7275 15.7359 48.7515ZM48.1688 49.9359C47.7288 49.8799 47.3201 50.1914 47.2641 50.6234C47.2081 51.0634 47.5116 51.464 47.9516 51.528C47.9836 51.528 48.0243 51.5359 48.0563 51.5359C48.4483 51.5359 48.8004 51.2405 48.8484 50.8405C48.9124 50.4005 48.6008 49.9999 48.1688 49.9359ZM16.3859 51.889C16.2824 51.8835 16.1759 51.8979 16.0719 51.9359C15.6559 52.0799 15.4404 52.5433 15.5844 52.9593C15.7044 53.2873 16.0079 53.4874 16.3359 53.4874C16.4239 53.4874 16.5198 53.4725 16.6078 53.4405C17.0238 53.2965 17.2395 52.8314 17.0875 52.4234C16.9795 52.1054 16.6964 51.9055 16.3859 51.889ZM27.1859 52.6718C26.9839 52.6358 26.7684 52.6759 26.5844 52.7999C26.2244 53.0559 26.1364 53.5524 26.3844 53.9124C26.5444 54.1364 26.7926 54.2562 27.0406 54.2562C27.2006 54.2562 27.3607 54.2162 27.5047 54.1202C27.8647 53.8642 27.9527 53.3679 27.7047 52.9999C27.5767 52.8199 27.3879 52.7078 27.1859 52.6718ZM47.2109 52.9765C46.9012 52.936 46.5836 53.0807 46.4156 53.3687C46.1996 53.7527 46.3285 54.24 46.7125 54.464C46.8405 54.536 46.9765 54.5687 47.1125 54.5687C47.3925 54.5687 47.6558 54.4247 47.8078 54.1687C48.0238 53.7847 47.8965 53.2956 47.5125 53.0796C47.4165 53.0236 47.3142 52.99 47.2109 52.9765ZM38.6984 53.7671C38.3891 53.7345 38.0745 53.8885 37.9125 54.1765C37.7045 54.5605 37.8394 55.048 38.2234 55.264C38.3514 55.328 38.4796 55.3593 38.6156 55.3593C38.8956 55.3593 39.1685 55.2155 39.3125 54.9515C39.5285 54.5675 39.392 54.08 39 53.864C38.904 53.81 38.8016 53.778 38.6984 53.7671ZM24.2531 54.264C24.149 54.2671 24.0438 54.2899 23.9438 54.3359C23.5438 54.5199 23.3676 54.9999 23.5516 55.3999C23.6876 55.6959 23.9757 55.864 24.2797 55.864C24.3917 55.864 24.5036 55.8401 24.6156 55.7921C25.0156 55.6081 25.1918 55.128 25.0078 54.728C24.8698 54.428 24.5655 54.2546 24.2531 54.264ZM18.0266 54.4593C17.8246 54.4973 17.6365 54.6121 17.5125 54.7921C17.2645 55.1521 17.3523 55.6566 17.7203 55.9046C17.8563 56.0006 18.0168 56.0484 18.1688 56.0484C18.4248 56.0484 18.6713 55.9272 18.8313 55.6952C19.0793 55.3352 18.9834 54.8403 18.6234 54.5843C18.4434 54.4603 18.2286 54.4213 18.0266 54.4593ZM44.7891 54.9843C44.6853 54.9762 44.5779 54.9874 44.4719 55.0234C44.0559 55.1594 43.8234 55.6072 43.9594 56.0312C44.0714 56.3672 44.3843 56.5843 44.7203 56.5843C44.8003 56.5843 44.8888 56.5677 44.9688 56.5437C45.3928 56.4077 45.6157 55.9519 45.4797 55.5359C45.3777 55.2179 45.1003 55.0087 44.7891 54.9843ZM41.4406 54.9874C41.132 55.0377 40.8702 55.2663 40.7922 55.5843C40.6802 56.0163 40.9448 56.4473 41.3688 56.5593V56.5515C41.4328 56.5755 41.5048 56.5843 41.5688 56.5843C41.9208 56.5843 42.2478 56.3365 42.3438 55.9765C42.4478 55.5445 42.1914 55.1119 41.7594 54.9999C41.6514 54.9739 41.5435 54.9707 41.4406 54.9874ZM21.1516 55.1593C20.7116 55.1993 20.3834 55.5834 20.4234 56.0234C20.4634 56.4394 20.8154 56.7515 21.2234 56.7515H21.2953C21.7353 56.7115 22.0636 56.3196 22.0156 55.8796C21.9836 55.4396 21.5916 55.1193 21.1516 55.1593Z" fill="black"/>
</svg>
