<svg width="64" height="64" viewBox="0 0 64 64" fill="none" xmlns="http://www.w3.org/2000/svg">
<g clip-path="url(#clip0_154_2)">
<path d="M44.3452 43.9333C46.707 43.6888 48.4987 41.6528 48.4172 39.2093C48.336 36.766 46.2997 34.8112 43.8565 34.8112H43.6937C41.1687 34.8927 39.2142 37.0103 39.2957 39.535C39.3772 40.7567 39.8657 41.8155 40.5987 42.5485C37.8297 48.0055 33.5947 51.9963 27.2422 55.3355C22.9257 57.616 18.4465 58.4305 13.9672 57.8605C10.3022 57.3717 7.45175 55.743 5.65975 53.055C3.05375 49.0643 2.8095 44.7475 5.0085 40.431C6.556 37.336 8.999 35.0555 10.5465 33.9152C10.2207 32.8565 9.732 31.0647 9.48775 29.7617C-2.3215 38.3135 -1.09975 49.8787 2.48375 55.3355C5.17125 59.408 10.628 61.9328 16.6547 61.9328C18.2835 61.9328 19.9122 61.7698 21.5412 61.3628C31.966 59.3265 39.866 53.1365 44.3452 43.9333ZM58.6792 33.834C52.4895 26.5852 43.368 22.5945 32.9432 22.5945H31.6402C30.9072 21.1285 29.3597 20.151 27.6495 20.151H27.4865C24.962 20.2325 23.0075 22.35 23.0887 24.875C23.1702 27.3183 25.2062 29.273 27.6495 29.273H27.8122C29.604 29.1915 31.1515 28.0513 31.803 26.5037H33.269C39.4587 26.5037 45.3225 28.2955 50.6165 31.7978C54.6885 34.4855 57.6205 37.9878 59.2492 42.2228C60.6337 45.6435 60.5522 48.9827 59.0862 51.8335C56.806 56.15 52.9782 58.512 47.9287 58.512C44.671 58.512 41.5762 57.5345 39.9472 56.8015C39.0515 57.616 37.4225 58.919 36.2822 59.7337C39.7845 61.3625 43.368 62.2585 46.7885 62.2585C54.607 62.2585 60.3895 57.9418 62.5885 53.6253C64.9502 48.9013 64.7872 40.7567 58.6792 33.834ZM17.3062 45.3175C17.3877 47.761 19.4237 49.7155 21.867 49.7155H22.03C24.5547 49.6343 26.5092 47.5165 26.4277 44.9917C26.3465 42.5482 24.3102 40.5938 21.867 40.5938H21.7042C21.5412 40.5938 21.2967 40.5938 21.1342 40.675C17.795 35.1367 16.4105 29.11 16.8992 22.5942C17.2247 17.7075 18.8537 13.4722 21.7042 9.97C24.066 6.9565 28.6267 5.4905 31.7217 5.40925C40.3545 5.24625 44.0192 15.997 44.2637 20.3137C45.3225 20.558 47.1142 21.1283 48.336 21.5355C47.3585 8.3415 39.2142 1.5 31.396 1.5C24.066 1.5 17.3062 6.794 14.6185 14.6128C10.8722 25.0378 13.3155 35.0555 17.8762 42.9557C17.4692 43.5257 17.2247 44.4217 17.3062 45.3177V45.3175Z" fill="#764ABC"/>
</g>
<defs>
<clipPath id="clip0_154_2">
<rect width="64" height="64" fill="white"/>
</clipPath>
</defs>
</svg>
