<svg width="64" height="64" viewBox="0 0 64 64" fill="none" xmlns="http://www.w3.org/2000/svg">
<path fill-rule="evenodd" clip-rule="evenodd" d="M32.056 5.37598C46.7533 5.37598 58.6666 17.2893 58.6666 31.9866C58.6666 46.6826 46.7533 58.5973 32.056 58.5973C17.36 58.5973 5.44531 46.684 5.44531 31.9866C5.44665 17.2893 17.36 5.37598 32.056 5.37598Z" fill="#F06292"/>
<path d="M48.7479 16.7652C47.5426 12.0386 39.7066 10.4852 32.2906 13.1199C27.8773 14.6879 23.0986 17.1492 19.6626 20.3626C15.5773 24.1839 14.9266 27.5092 15.1946 28.8986C16.1413 33.8012 22.8599 37.0066 25.6213 39.3852V39.3999C24.8066 39.8012 18.8466 42.8172 17.4519 45.9012C15.9799 49.1546 17.6866 51.4892 18.8159 51.8039C22.3159 52.7772 25.9066 51.0266 27.8373 48.1479C29.6999 45.3692 29.5453 41.7826 28.7359 39.9972C29.8519 39.7026 31.1546 39.5706 32.8079 39.7639C37.4759 40.3092 38.3919 43.2239 38.2159 44.4439C38.0413 45.6639 37.0613 46.3346 36.7346 46.5372C36.4066 46.7399 36.3079 46.8106 36.3346 46.9599C36.3746 47.1786 36.5253 47.1706 36.8053 47.1239C37.1893 47.0586 39.2559 46.1319 39.3453 43.8799C39.4573 41.0212 36.7186 37.8239 31.8679 37.9066C29.8706 37.9412 28.6146 38.1306 27.7066 38.4692C27.6399 38.3932 27.5706 38.3172 27.5013 38.2412C24.5026 35.0412 18.9586 32.7786 19.1933 28.4772C19.2786 26.9132 19.8226 22.7959 29.8453 17.8012C38.0559 13.7092 44.6293 14.8359 45.7653 17.3306C47.3879 20.8959 42.2519 27.5212 33.7253 28.4772C30.4759 28.8412 28.7653 27.5826 28.3399 27.1132C27.8919 26.6199 27.8253 26.5972 27.6586 26.6906C27.3866 26.8412 27.5586 27.2772 27.6586 27.5372C27.9133 28.1999 28.9586 29.3746 30.7386 29.9599C32.3053 30.4746 36.1199 30.7559 40.7333 28.9719C45.8986 26.9719 49.9333 21.4119 48.7479 16.7652ZM26.7679 40.8506C27.1546 42.2826 27.1119 43.6186 26.7133 44.8279C26.6693 44.9626 26.6199 45.0946 26.5666 45.2266C26.5133 45.3572 26.4559 45.4879 26.3946 45.6159C26.0866 46.2559 25.6719 46.8546 25.1653 47.4079C23.6186 49.0946 21.4586 49.7319 20.5333 49.1946C19.5333 48.6146 20.0346 46.2372 21.8266 44.3412C23.7546 42.3026 26.5293 40.9919 26.5293 40.9919L26.5253 40.9839C26.6053 40.9399 26.6866 40.8959 26.7679 40.8506Z" fill="white"/>
</svg>
