<svg width="64" height="64" viewBox="0 0 64 64" fill="none" xmlns="http://www.w3.org/2000/svg">
<path d="M32 5.3999C24.9453 5.3999 18.1795 8.20239 13.191 13.1909C8.20252 18.1793 5.40002 24.9451 5.40002 31.9999C5.40002 39.0547 8.20252 45.8205 13.191 50.8089C18.1795 55.7974 24.9453 58.5999 32 58.5999C39.0548 58.5999 45.8206 55.7974 50.8091 50.8089C55.7975 45.8205 58.6 39.0547 58.6 31.9999C58.6 24.9451 55.7975 18.1793 50.8091 13.1909C45.8206 8.20239 39.0548 5.3999 32 5.3999Z" fill="white"/>
<path d="M10.668 32.0001C10.668 40.4481 15.5746 47.7414 22.692 51.2001L12.5133 23.3174C11.3306 25.9721 10.668 28.9014 10.668 32.0001ZM46.4053 30.9254C46.4053 28.2894 44.988 26.4587 44.1786 25.0427C43.0946 23.2707 42.0773 21.7934 42.0773 20.0401C42.0773 18.0867 44.0386 16.2534 46.132 16.2534C46.2266 16.2534 46.312 16.2614 46.4066 16.2641C42.6146 12.7787 37.5573 10.6667 32.0013 10.6667C24.816 10.6667 18.464 14.2214 14.5986 19.6654C14.9026 19.7641 15.008 19.7174 15.4133 19.7174C17.6386 19.7174 21.0986 19.4507 21.0986 19.4507C22.2453 19.3747 22.3853 21.0667 21.2306 21.2054C21.2306 21.2054 20.0786 21.3454 18.7933 21.4081L26.7013 45.1121L31.368 31.1107L27.8973 21.4467C26.7493 21.3854 25.6586 21.2441 25.6586 21.2441C24.5093 21.1694 24.6426 19.4107 25.7893 19.4894C25.7893 19.4894 29.32 19.7561 31.412 19.7561C33.6453 19.7561 37.0973 19.4894 37.0973 19.4894C38.2453 19.4134 38.384 21.1054 37.236 21.2441C37.236 21.2441 36.076 21.3841 34.7933 21.4467L42.648 44.9267L44.78 37.8254C45.8653 35.0521 46.4053 32.7587 46.4053 30.9254ZM32.3746 33.8614L25.9746 52.4641C27.8893 53.0321 29.908 53.3334 32.0013 53.3334C34.4826 53.3334 36.8666 52.9014 39.0893 52.1241C39.036 52.0294 38.976 51.9334 38.932 51.8307L32.3746 33.8614ZM50.724 21.7574C50.8186 22.4374 50.868 23.1694 50.868 23.9507C50.868 26.1214 50.46 28.5521 49.2426 31.6001L42.7293 50.4467C49.0733 46.7507 53.3333 39.8694 53.3333 32.0001C53.3333 28.2921 52.3853 24.8054 50.724 21.7574Z" fill="#01579B"/>
<path d="M5.33337 31.9999C5.33337 46.6986 17.2934 58.6666 31.9987 58.6666C46.7067 58.6666 58.6667 46.6986 58.6667 31.9999C58.6667 17.3013 46.7067 5.33325 32 5.33325C17.2934 5.33325 5.33337 17.3013 5.33337 31.9999ZM7.99337 31.9999C7.99337 18.7679 18.7587 8.00125 31.9987 8.00125C45.2387 8.00125 56.0067 18.7679 56.0067 31.9999C56.0067 45.2319 45.2387 56.0013 32 56.0013C18.7627 56.0013 7.99337 45.2319 7.99337 31.9999Z" fill="#01579B"/>
</svg>
